HIERARCHY
ROOT Hips
{
	OFFSET 0.00 0.00 0.00
	CHANNELS 6 Xposition Yposition Zposition Xrotation Yrotation Zrotation
	JOINT Spine
	{
		OFFSET 0.00000 3.24121 0.00000
		CHANNELS 3 Xrotation Yrotation Zrotation
		JOINT Head
		{
			OFFSET 0.00000 18.38296 0.00000
			CHANNELS 3 Xrotation Yrotation Zrotation
			End Site
			{
				OFFSET 0.00000 4.52755 0.00000
			}
		}
		JOINT LeftShoulder
		{
			OFFSET 0.00000 12.82826 0.00000
			CHANNELS 3 Xrotation Yrotation Zrotation
			JOINT LeftArm
			{
				OFFSET 7.74805 0.00000 0.00000
				CHANNELS 3 Xrotation Yrotation Zrotation
				JOINT LeftForeArm
				{
					OFFSET 10.63561 0.00000 0.00000
					CHANNELS 3 Yrotation Zrotation Xrotation
					JOINT LeftHand
					{
						OFFSET 8.34675 0.00000 0.00000
						CHANNELS 3 Xrotation Yrotation Zrotation
						JOINT LeftHandThumb1
						{
							OFFSET 0.00000 0.00000 0.00000
							CHANNELS 3 Xrotation Zrotation Yrotation
							End Site
							{
								OFFSET 0.00000 0.00000 3.93700
							}
						}
						End Site
						{
							OFFSET 3.93700 0.00000 0.00000
						}
					}
				}
			}
		}
		JOINT RightShoulder
		{
			OFFSET 0.00000 12.82826 0.00000
			CHANNELS 3 Xrotation Yrotation Zrotation
			JOINT RightArm
			{
				OFFSET -7.74805 0.00000 0.00000
				CHANNELS 3 Xrotation Yrotation Zrotation
				JOINT RightForeArm
				{
					OFFSET -10.63561 0.00000 0.00000
					CHANNELS 3 Yrotation Zrotation Xrotation
					JOINT RightHand
					{
						OFFSET -8.34675 0.00000 0.00000
						CHANNELS 3 Xrotation Yrotation Zrotation
						JOINT RightHandThumb1
						{
							OFFSET 0.00000 0.00000 0.00000
							CHANNELS 3 Xrotation Zrotation Yrotation
							End Site
							{
								OFFSET 0.00000 0.00000 3.93700
							}
						}
						End Site
						{
							OFFSET -3.93700 0.00000 0.00000
						}
					}
				}
			}
		}
	}
	JOINT LeftUpLeg
	{
		OFFSET 3.43402 0.00000 0.00000
		CHANNELS 3 Xrotation Yrotation Zrotation
		JOINT LeftLeg
		{
			OFFSET 0.00000 -15.71302 0.00000
			CHANNELS 3 Xrotation Yrotation Zrotation
			JOINT LeftFoot
			{
				OFFSET 0.00000 -14.43512 0.00000
				CHANNELS 3 Xrotation Yrotation Zrotation
				JOINT LeftToeBase
				{
					OFFSET 0.00000 -1.27828 4.77061
					CHANNELS 3 Xrotation Yrotation Zrotation
					End Site
					{
						OFFSET 0.00000 0.00000 2.95275
					}
				}
			}
		}
	}
	JOINT RightUpLeg
	{
		OFFSET -3.43402 0.00000 0.00000
		CHANNELS 3 Xrotation Yrotation Zrotation
		JOINT RightLeg
		{
			OFFSET 0.00000 -15.71302 0.00000
			CHANNELS 3 Xrotation Yrotation Zrotation
			JOINT RightFoot
			{
				OFFSET 0.00000 -14.43512 0.00000
				CHANNELS 3 Xrotation Yrotation Zrotation
				JOINT RightToeBase
				{
					OFFSET 0.00000 -1.27828 4.77061
					CHANNELS 3 Xrotation Yrotation Zrotation
					End Site
					{
						OFFSET 0.00000 0.00000 2.95275
					}
				}
			}
		}
	}
}
MOTION
Frames: 13
Frame Time: 0.008333
 -3.6849 32.2602 1.9835 34.2937 3.1378 -3.5942 -37.3802 -8.8053 1.4602 7.5918 -1.5201 -5.6105 37.6378 32.7561 17.0586 -62.0714 8.5902 -50.6891 8.6728 0.0000 23.0604 20.9011 -46.5717 27.7372 33.1476 -0.0000 26.2537 30.6833 -31.2676 -22.5648 -53.3127 15.1555 48.4365 -6.5603 -0.0000 -20.2396 -1.9797 14.7115 7.7512 32.8623 0.0000 -24.3270 -31.2343 6.1478 7.5724 -0.1929 0.0000 -0.0000 -4.8821 0.5817 -4.8078 4.1718 -0.0000 0.0000 -27.0982 -8.2824 0.2853 -4.5671 -0.0000 0.0000 -5.4390 -7.0980 5.1352 11.7252 -0.0000 0.0000
 -3.6900 32.2613 1.9778 34.3018 3.1201 -3.5733 -37.3686 -8.7850 1.4568 7.5307 -1.5555 -5.5945 37.6130 32.7412 17.0736 -62.1112 8.7744 -50.7075 8.4705 0.0000 22.9984 20.8005 -46.6305 27.5900 33.1476 -0.0000 26.2537 30.6692 -31.2754 -22.5812 -53.3233 15.2032 48.4296 -6.5531 -0.0000 -20.2155 -1.9636 14.7201 7.6844 32.8623 0.0000 -24.3270 -31.2788 6.0644 7.5711 -0.1103 0.0000 0.0000 -4.9031 0.6841 -4.7481 4.1390 0.0000 -0.0000 -27.1104 -8.2738 0.2831 -4.5927 0.0000 0.0000 -5.4356 -7.0671 5.1930 11.8038 0.0000 0.0000
 -3.6947 32.2628 1.9729 34.2984 3.0901 -3.5427 -37.3491 -8.7497 1.4482 7.4814 -1.5645 -5.5590 37.5961 32.7146 17.0732 -62.1082 8.8562 -50.7204 8.3239 0.0000 22.5831 20.7562 -46.9150 27.4258 33.1476 -0.0000 26.2537 30.6412 -31.2501 -22.6031 -53.2961 15.2311 48.4018 -6.5443 -0.0000 -20.1895 -1.9845 14.7572 7.7466 32.8623 0.0000 -24.3270 -31.2910 5.9445 7.5695 -0.0465 0.0000 -0.0000 -4.9455 0.8594 -4.7917 4.2455 -0.0000 -0.0000 -27.1099 -8.2823 0.2802 -4.6211 -0.0000 0.0000 -5.4032 -7.0114 5.2342 11.8097 -0.0000 0.0000
 -3.6982 32.2635 1.9699 34.2526 3.0665 -3.4857 -37.2890 -8.7098 1.4150 7.4247 -1.5486 -5.5331 37.5433 32.6821 17.1010 -62.0867 9.0193 -50.7243 8.1244 0.0000 22.5382 20.6868 -46.9480 27.3275 33.1476 -0.0000 26.2537 30.6321 -31.2312 -22.6216 -53.3217 15.2200 48.3986 -6.5216 -0.0000 -20.1342 -1.9630 14.7168 7.6835 32.8623 0.0000 -24.3270 -31.2612 5.8591 7.5421 0.0242 0.0000 0.0000 -4.9755 1.0174 -4.8031 4.2565 -0.0000 -0.0000 -27.0671 -8.2488 0.2531 -4.6453 -0.0000 -0.0000 -5.3789 -7.0074 5.1449 11.7186 0.0000 -0.0000
 -3.7014 32.2651 1.9648 34.2544 3.0613 -3.4611 -37.2771 -8.6970 1.3995 7.3843 -1.5641 -5.4985 37.5731 32.6605 17.0803 -62.0773 9.1077 -50.7506 7.9246 0.0000 22.1053 20.3920 -47.3255 26.8218 33.1476 -0.0000 26.2537 30.6513 -31.2405 -22.5923 -53.3216 15.3543 48.3551 -6.5538 -0.0000 -20.1641 -1.9743 14.6829 7.7447 32.8623 0.0000 -24.3270 -31.2441 5.5883 7.5284 0.0544 -0.0000 -0.0000 -5.0005 1.3242 -4.8455 4.3338 -0.0000 0.0000 -27.0580 -8.3271 0.2444 -4.7015 0.0000 -0.0000 -5.3545 -6.8997 5.2437 11.8307 -0.0000 -0.0000
 -3.7045 32.2666 1.9590 34.2419 3.0441 -3.4260 -37.2415 -8.6541 1.3878 7.3173 -1.5855 -5.4931 37.5088 32.5875 17.1141 -62.0141 9.2757 -50.7636 7.6822 0.0000 21.4951 20.0819 -47.7784 26.2743 33.1476 -0.0000 26.2537 30.5945 -31.2397 -22.6225 -53.3020 15.4074 48.3561 -6.5920 -0.0000 -20.1742 -1.9930 14.6993 7.8090 32.8623 0.0000 -24.3270 -31.2666 5.4513 7.5155 0.1594 0.0000 0.0000 -5.0817 1.5304 -4.8747 4.4461 -0.0000 -0.0000 -27.0546 -8.3369 0.2282 -4.7196 0.0000 -0.0000 -5.3335 -6.8591 5.2508 11.8112 -0.0000 0.0000
 -3.7097 32.2674 1.9564 34.1919 2.9938 -3.3930 -37.1682 -8.5904 1.3931 7.2500 -1.6119 -5.4991 37.4581 32.5264 17.1365 -62.0255 9.5532 -50.7557 7.3722 0.0000 21.3640 19.9373 -47.9778 26.0251 33.1476 -0.0000 26.2537 30.5397 -31.2252 -22.6737 -53.2442 15.4325 48.3632 -6.5824 -0.0000 -20.1741 -1.9707 14.6568 7.7442 32.8623 0.0000 -24.3270 -31.3025 5.4528 7.5227 0.3444 -0.0000 -0.0000 -5.2172 1.6575 -4.7863 4.5115 0.0000 -0.0000 -27.0040 -8.2949 0.2378 -4.7504 0.0000 0.0000 -5.2976 -6.8294 5.2306 11.7573 -0.0000 0.0000
 -3.7129 32.2687 1.9508 34.1646 2.9650 -3.3380 -37.1198 -8.5349 1.3651 7.1766 -1.6082 -5.4644 37.4501 32.4640 17.1240 -62.0692 9.8413 -50.7293 7.0521 0.0000 21.0245 19.7103 -48.4341 25.5864 33.1476 -0.0000 26.2537 30.4888 -31.2138 -22.7332 -53.2424 15.4180 48.4045 -6.5827 -0.0000 -20.2090 -1.9653 14.6266 7.7384 32.8623 0.0000 -24.3270 -31.3299 5.2753 7.5026 0.5300 -0.0000 -0.0000 -5.3242 1.9641 -4.8676 4.5264 -0.0000 -0.0000 -26.9608 -8.1543 0.2039 -4.8281 -0.0000 -0.0000 -5.2526 -6.9041 5.2839 11.8044 -0.0000 -0.0000
 -3.7151 32.2700 1.9469 34.1199 2.9486 -3.2910 -37.0587 -8.4883 1.3386 7.1328 -1.6288 -5.4467 37.4048 32.3824 17.1469 -62.0642 10.1806 -50.7322 6.6429 0.0000 20.8139 19.7445 -48.4450 25.6245 33.1476 -0.0000 26.2537 30.4106 -31.1592 -22.8017 -53.1717 15.3712 48.3974 -6.5586 -0.0000 -20.2287 -1.9738 14.6302 7.7696 32.8623 0.0000 -24.3270 -31.3355 5.0770 7.4798 0.6968 0.0000 -0.0000 -5.4211 2.2375 -4.9025 4.5505 -0.0000 -0.0000 -26.9102 -8.1333 0.1762 -4.8719 -0.0000 -0.0000 -5.2323 -6.8822 5.3106 11.8294 0.0000 -0.0000
 -3.7144 32.2713 1.9447 34.0629 2.9331 -3.2353 -36.9814 -8.4257 1.3188 7.0660 -1.6634 -5.4755 37.3617 32.2963 17.1588 -61.9349 10.3938 -50.7750 6.1936 0.0000 20.2015 19.3342 -48.7583 25.0145 33.1476 -0.0000 26.2537 30.3196 -31.1646 -22.8634 -53.2417 15.2685 48.4495 -6.5607 -0.0000 -20.1426 -1.9629 14.5875 7.7490 32.8623 0.0000 -24.3270 -31.3423 4.9300 7.4471 0.8846 0.0000 -0.0000 -5.5469 2.4663 -4.9066 4.5788 -0.0000 -0.0000 -26.8504 -8.1253 0.1336 -4.9060 0.0000 -0.0000 -5.1902 -6.7980 5.2927 11.8290 -0.0000 0.0000
 -3.7127 32.2735 1.9416 34.0115 2.9214 -3.1667 -36.9127 -8.3661 1.2784 7.0093 -1.6876 -5.4705 37.3297 32.2063 17.1799 -61.9932 10.9628 -50.7708 5.5719 0.0000 19.8934 18.9511 -49.1133 24.4272 33.1476 -0.0000 26.2537 30.2812 -31.1341 -22.8844 -53.1541 15.3338 48.4136 -6.5628 -0.0000 -20.2825 -1.9830 14.5662 7.8386 32.8623 0.0000 -24.3270 -31.2914 4.5636 7.3946 1.0166 -0.0000 -0.0000 -5.7058 2.9278 -5.0245 4.7868 -0.0000 0.0000 -26.8022 -8.1085 0.0754 -4.9366 -0.0000 0.0000 -5.1702 -6.8000 5.2981 11.7680 -0.0000 -0.0000
 -3.7170 32.2732 1.9440 33.8752 2.8876 -3.1430 -36.7558 -8.3082 1.2801 6.9594 -1.7061 -5.4496 37.2444 32.1011 17.2308 -61.9280 11.4264 -50.7945 4.9366 0.0000 19.1853 18.4145 -49.5851 23.6191 33.1476 -0.0000 26.2537 30.2609 -31.1328 -22.9046 -53.2416 15.2303 48.4609 -6.5614 -0.0000 -20.2180 -1.9804 14.6090 7.8062 32.8623 0.0000 -24.3270 -31.4840 4.9006 7.4201 1.6128 -0.0000 -0.0000 -6.0374 2.6970 -4.8115 4.5180 -0.0000 0.0000 -26.6367 -8.1024 0.0908 -4.9973 0.0000 0.0000 -5.1235 -6.6942 5.2976 11.7635 0.0000 -0.0000
 -3.7160 32.2751 1.9411 33.8264 2.8851 -3.0907 -36.6895 -8.2690 1.2468 6.9035 -1.7374 -5.4594 37.2411 32.0387 17.2067 -61.8396 11.6576 -50.8777 4.3802 0.0000 18.7642 18.3493 -49.5712 23.5436 33.1476 -0.0000 26.2537 30.2136 -31.1006 -22.9531 -53.1936 15.2068 48.4511 -6.5186 -0.0000 -20.2537 -1.9987 14.5388 7.9143 32.8623 0.0000 -24.3270 -31.5373 4.6284 7.3813 1.9158 0.0000 0.0000 -6.2671 3.0604 -4.8923 4.3256 0.0000 -0.0000 -26.5771 -8.1039 0.0457 -5.0473 -0.0000 -0.0000 -5.0910 -6.6526 5.3431 11.7510 0.0000 -0.0000
